<?xml version="1.0" encoding="utf-8"?>
<!-- Generator: Adobe Illustrator 24.0.1, SVG Export Plug-In . SVG Version: 6.00 Build 0)  -->
<svg version="1.1" id="Layer_1" xmlns="http://www.w3.org/2000/svg" xmlns:xlink="http://www.w3.org/1999/xlink" x="0px" y="0px"
	 viewBox="0 0 16 16" style="enable-background:new 0 0 16 16;" xml:space="preserve">
<style type="text/css">
	.st0{fill:#FFFFFF;}
</style>
<path id="messages_x5F_chat" class="st0" d="M15.56,15.97c-0.04,0-0.08-0.01-0.13-0.02c-5.05-1.26-4.71,0.16-7.51-0.59
	c-0.85-0.23-1.62-0.63-2.29-1.16c5.09,0.62,9.33-3.8,8.58-9.01c0.77,0.8,1.33,1.78,1.57,2.89c0.68,3.14-1.04,2.61,0.2,7.38
	C16.06,15.75,15.81,15.97,15.56,15.97z M10.54,1.53c-3.43-2.99-8.75-1.3-9.94,3.14c-0.5,1.86-0.02,2.72-0.02,4.12
	C0.59,10.22,0,12.3,0,12.3c0,0.25,0.23,0.5,0.51,0.43c1-0.26,2.58-0.77,4.48-0.26C11.37,14.2,15.46,5.82,10.54,1.53z"/>
</svg>
