<?xml version="1.0" encoding="utf-8"?>
<!-- Generator: Adobe Illustrator 24.0.1, SVG Export Plug-In . SVG Version: 6.00 Build 0)  -->
<svg version="1.1" id="Layer_1" xmlns="http://www.w3.org/2000/svg" xmlns:xlink="http://www.w3.org/1999/xlink" x="0px" y="0px"
	 viewBox="0 0 16 16" style="enable-background:new 0 0 16 16;" xml:space="preserve">
<style type="text/css">
	.st0{fill:#FFFFFF;}
</style>
<path id="instagram_1_" class="st0" d="M5.33,7.99c0-1.46,1.18-2.65,2.65-2.65s2.65,1.19,2.65,2.65s-1.19,2.65-2.65,2.65
	S5.33,9.45,5.33,7.99 M3.9,7.99c0,2.25,1.83,4.08,4.08,4.08s4.08-1.83,4.08-4.08s-1.83-4.08-4.08-4.08S3.9,5.74,3.9,7.99
	 M11.26,3.75c0,0.53,0.43,0.95,0.95,0.95c0.53,0,0.95-0.43,0.95-0.95S12.74,2.8,12.22,2.8C11.69,2.8,11.26,3.23,11.26,3.75
	 M4.77,14.45C4,14.42,3.57,14.29,3.29,14.18c-0.71-0.27-1.23-0.8-1.51-1.51c-0.47-1.21-0.32-6.96-0.27-7.89
	c0.04-0.91,0.23-1.74,0.87-2.39C3.18,1.6,4.2,1.21,11.19,1.53c0.91,0.04,1.74,0.23,2.39,0.87c0.79,0.79,1.19,1.83,0.87,8.81
	c-0.04,0.77-0.16,1.19-0.27,1.47C13.45,14.52,11.8,14.78,4.77,14.45 M4.7,0.1c-1.3,0.06-2.43,0.38-3.33,1.28
	C0.46,2.3,0.14,3.43,0.09,4.72c-0.04,0.8-0.25,6.88,0.37,8.47c0.42,1.08,1.24,1.9,2.32,2.32c0.51,0.2,1.08,0.33,1.93,0.37
	c7.07,0.32,9.69,0.15,10.8-2.69c0.2-0.5,0.33-1.08,0.37-1.93c0.32-7.11-0.05-8.65-1.28-9.88C13.61,0.41,12.46-0.26,4.7,0.1"/>
</svg>
