<?xml version="1.0" encoding="utf-8"?>
<!-- Generator: Adobe Illustrator 24.0.1, SVG Export Plug-In . SVG Version: 6.00 Build 0)  -->
<svg version="1.1" id="Layer_1" xmlns="http://www.w3.org/2000/svg" xmlns:xlink="http://www.w3.org/1999/xlink" x="0px" y="0px"
	 viewBox="0 0 16 16" style="enable-background:new 0 0 16 16;" xml:space="preserve">
<style type="text/css">
	.st0{fill:#FFFFFF;}
</style>
<path id="periscope_1_" class="st0" d="M8,0C4.55,0,1.76,2.8,1.76,6.25C1.76,10.89,6.75,16,8,16c1.25,0,6.24-5.1,6.24-9.75
	C14.24,2.8,11.45,0,8,0z M8,10.06c-2.09,0-3.79-1.7-3.79-3.79c0-0.83,0.27-1.6,0.72-2.22c0.05,0.8,0.71,1.44,1.53,1.44
	c0.85,0,1.53-0.69,1.53-1.53c0-0.6-0.35-1.12-0.86-1.37C7.41,2.52,7.7,2.48,8,2.48c2.09,0,3.79,1.7,3.79,3.79S10.09,10.06,8,10.06z"
	/>
</svg>
