<?xml version="1.0" encoding="utf-8"?>
<!-- Generator: Adobe Illustrator 24.0.1, SVG Export Plug-In . SVG Version: 6.00 Build 0)  -->
<svg version="1.1" id="Layer_1" xmlns="http://www.w3.org/2000/svg" xmlns:xlink="http://www.w3.org/1999/xlink" x="0px" y="0px"
	 viewBox="0 0 16 16" style="enable-background:new 0 0 16 16;" xml:space="preserve">
<style type="text/css">
	.st0{fill:#FFFFFF;}
</style>
<path id="call_1_" class="st0" d="M15.71,13.86c-0.49,1.5-2.43,2.25-3.81,2.12c-1.89-0.17-3.94-1.17-5.5-2.27
	c-2.29-1.62-4.44-4.13-5.69-6.79c-0.88-1.88-1.08-4.19,0.23-5.91C1.43,0.38,1.95,0.04,2.74,0c1.1-0.05,1.25,0.57,1.63,1.55
	c0.28,0.73,0.65,1.48,0.86,2.23C5.63,5.2,4.26,5.26,4.09,6.41C3.98,7.14,4.86,8.12,5.26,8.64c0.78,1.02,1.72,1.89,2.78,2.56
	c0.61,0.38,1.59,1.07,2.28,0.69c1.07-0.59,0.97-2.39,2.47-1.78c0.78,0.32,1.53,0.77,2.27,1.17C16.2,11.9,16.15,12.54,15.71,13.86
	C15.39,14.85,16.04,12.87,15.71,13.86z"/>
</svg>
