<svg id="Layer_1" data-name="Layer 1" xmlns="http://www.w3.org/2000/svg" viewBox="0 0 14 14.99"><defs><style>.cls-1{fill:#fff;}</style></defs><title>Singin_icon</title><path id="profile_round" data-name="profile round" class="cls-1" d="M15,13.72A7,7,0,0,0,10.69,8.5a4.64,4.64,0,0,0,1.55-4.2A4.41,4.41,0,0,0,8.51.53,4.37,4.37,0,0,0,3.73,4.45c0,.18,0,.36,0,.55a4.62,4.62,0,0,0,1.6,3.5A7,7,0,0,0,1,13.72a1.47,1.47,0,0,0,1.14,1.74l.27,0H13.56A1.47,1.47,0,0,0,15,14,1.24,1.24,0,0,0,15,13.72ZM5.14,5A3,3,0,0,1,8,2,3,3,0,0,1,8,8,2.94,2.94,0,0,1,5.14,5Zm7.45,9H3.41a.73.73,0,0,1-.72-.76.67.67,0,0,1,0-.24A5.49,5.49,0,0,1,8,9.49,5.49,5.49,0,0,1,13.27,13a.75.75,0,0,1-.44,1,.61.61,0,0,1-.24,0Z" transform="translate(-1 -0.51)"/></svg>