<svg id="Layer_1" data-name="Layer 1" xmlns="http://www.w3.org/2000/svg" viewBox="0 0 13.98 15.01"><defs><style>.cls-1{fill:#fff;}</style></defs><title>Signup_icon</title><path id="profile_plus_round" data-name="profile plus round" class="cls-1" d="M10.14,13.46a.69.69,0,0,1-.71.68H8.86c0,.68.07,1.37-.72,1.37a.71.71,0,0,1-.71-.69v-.68H6.57a.68.68,0,1,1,0-1.36h.86V12.1a.72.72,0,0,1,1.43,0v.68h.57A.69.69,0,0,1,10.14,13.46Zm3.42.68H12.29a.68.68,0,1,1,0-1.36h.3a.69.69,0,0,0,.72-.65.75.75,0,0,0,0-.26A5.49,5.49,0,0,0,8,8.69a5.49,5.49,0,0,0-5.27,3.18.69.69,0,0,0,.41.87.84.84,0,0,0,.27,0h.3a.68.68,0,1,1,0,1.36H2.44A1.38,1.38,0,0,1,1,12.82a1.42,1.42,0,0,1,0-.29A6.57,6.57,0,0,1,5.31,7.78,4,4,0,0,1,3.71,4.6,4.22,4.22,0,0,1,8.05.5a3.44,3.44,0,0,1,.46,0A4.23,4.23,0,0,1,12.24,4a4,4,0,0,1-1.55,3.82A6.57,6.57,0,0,1,15,12.53a1.38,1.38,0,0,1-1.41,1.61ZM10.86,4.6A2.81,2.81,0,0,0,8,1.87,2.8,2.8,0,0,0,5.15,4.6,2.78,2.78,0,0,0,8,7.32,2.8,2.8,0,0,0,10.86,4.6Z" transform="translate(-1.01 -0.49)"/></svg>