<?xml version="1.0" encoding="utf-8"?>
<!-- Generator: Adobe Illustrator 24.0.1, SVG Export Plug-In . SVG Version: 6.00 Build 0)  -->
<svg version="1.1" id="Layer_1" xmlns="http://www.w3.org/2000/svg" xmlns:xlink="http://www.w3.org/1999/xlink" x="0px" y="0px"
	 viewBox="0 0 16 16" style="enable-background:new 0 0 16 16;" xml:space="preserve">
<style type="text/css">
	.st0{fill:#FFFFFF;}
</style>
<path id="twitter_1_" class="st0" d="M5.03,14.5c6.04,0,9.34-5,9.34-9.34c0-0.14,0-0.28-0.01-0.42C15,4.27,15.56,3.7,16,3.04
	c-0.6,0.27-1.23,0.44-1.89,0.52c0.69-0.41,1.2-1.06,1.44-1.82c-0.64,0.38-1.35,0.65-2.08,0.8c-1.24-1.32-3.32-1.39-4.64-0.14
	c-0.85,0.8-1.21,2-0.95,3.14C5.24,5.4,2.78,4.15,1.11,2.1C0.24,3.6,0.69,5.52,2.13,6.48C1.61,6.47,1.1,6.32,0.64,6.07
	c0,0.01,0,0.03,0,0.04c0,1.56,1.1,2.91,2.63,3.22C2.79,9.46,2.28,9.48,1.79,9.39c0.43,1.34,1.66,2.25,3.07,2.28
	c-1.16,0.91-2.6,1.41-4.08,1.41c-0.26,0-0.52-0.02-0.78-0.05C1.5,13.99,3.25,14.5,5.03,14.5"/>
</svg>
